<svg xmlns="http://www.w3.org/2000/svg" width="980" height="310" viewBox="0 0 980 310">
  <rect width="100%" height="100%" fill="#F7F5F0"/>
  <text x="30" y="30" font-size="15" font-family="Georgia,serif" fill="#16181C">TCPD critical-difference diagram · real_world_37 · oracle_covering</text>
  <text x="30" y="52" font-size="10" font-family="monospace" fill="#6A7178">Lower rank is better · CD95=3.792 · N=32 · non-separation is inconclusive</text>
  <line x1="80" y1="80" x2="940" y2="80" stroke="#8B93A1" stroke-width="1"/>
  <line x1="80.0" y1="75" x2="80.0" y2="85" stroke="#8B93A1" stroke-width="1"/><text x="76.0" y="68" font-size="9" font-family="monospace" fill="#6A7178">1</text><line x1="141.4" y1="75" x2="141.4" y2="85" stroke="#8B93A1" stroke-width="1"/><line x1="202.9" y1="75" x2="202.9" y2="85" stroke="#8B93A1" stroke-width="1"/><line x1="264.3" y1="75" x2="264.3" y2="85" stroke="#8B93A1" stroke-width="1"/><line x1="325.7" y1="75" x2="325.7" y2="85" stroke="#8B93A1" stroke-width="1"/><text x="321.7" y="68" font-size="9" font-family="monospace" fill="#6A7178">5</text><line x1="387.1" y1="75" x2="387.1" y2="85" stroke="#8B93A1" stroke-width="1"/><line x1="448.6" y1="75" x2="448.6" y2="85" stroke="#8B93A1" stroke-width="1"/><line x1="510.0" y1="75" x2="510.0" y2="85" stroke="#8B93A1" stroke-width="1"/><line x1="571.4" y1="75" x2="571.4" y2="85" stroke="#8B93A1" stroke-width="1"/><line x1="632.9" y1="75" x2="632.9" y2="85" stroke="#8B93A1" stroke-width="1"/><text x="628.9" y="68" font-size="9" font-family="monospace" fill="#6A7178">10</text><line x1="694.3" y1="75" x2="694.3" y2="85" stroke="#8B93A1" stroke-width="1"/><line x1="755.7" y1="75" x2="755.7" y2="85" stroke="#8B93A1" stroke-width="1"/><line x1="817.1" y1="75" x2="817.1" y2="85" stroke="#8B93A1" stroke-width="1"/><line x1="878.6" y1="75" x2="878.6" y2="85" stroke="#8B93A1" stroke-width="1"/><line x1="940.0" y1="75" x2="940.0" y2="85" stroke="#8B93A1" stroke-width="1"/><text x="936.0" y="68" font-size="9" font-family="monospace" fill="#6A7178">15</text>
  <line x1="256.3" y1="98" x2="489.2" y2="98" stroke="#B08A3E" stroke-width="3"/>
  <text x="256.3" y="115" font-size="9" font-family="monospace" fill="#8F7135">SAA-centered CD95</text>
  <circle cx="291.2" cy="116" r="3" fill="#6A7178"/><text x="297.2" y="119" font-size="9" font-family="monospace" fill="#6A7178" font-weight="400">bocpd 4.44</text><circle cx="324.8" cy="128" r="3" fill="#6A7178"/><text x="330.8" y="131" font-size="9" font-family="monospace" fill="#6A7178" font-weight="400">rfpop 4.98</text><circle cx="349.7" cy="140" r="3" fill="#6A7178"/><text x="355.7" y="143" font-size="9" font-family="monospace" fill="#6A7178" font-weight="400">segneigh 5.39</text><circle cx="362.2" cy="152" r="3" fill="#6A7178"/><text x="368.2" y="155" font-size="9" font-family="monospace" fill="#6A7178" font-weight="400">binseg 5.59</text><circle cx="372.7" cy="164" r="3" fill="#0E120E"/><text x="378.7" y="167" font-size="9" font-family="monospace" fill="#0E120E" font-weight="700">SAA 5.77</text><circle cx="379.5" cy="176" r="3" fill="#6A7178"/><text x="385.5" y="179" font-size="9" font-family="monospace" fill="#6A7178" font-weight="400">pelt 5.88</text><circle cx="452.4" cy="188" r="3" fill="#6A7178"/><text x="458.4" y="191" font-size="9" font-family="monospace" fill="#6A7178" font-weight="400">cpnp 7.06</text><circle cx="494.6" cy="200" r="3" fill="#6A7178"/><text x="500.6" y="203" font-size="9" font-family="monospace" fill="#6A7178" font-weight="400">amoc 7.75</text><circle cx="511.0" cy="212" r="3" fill="#6A7178"/><text x="517.0" y="215" font-size="9" font-family="monospace" fill="#6A7178" font-weight="400">ecp 8.02</text><circle cx="547.4" cy="224" r="3" fill="#6A7178"/><text x="553.4" y="227" font-size="9" font-family="monospace" fill="#6A7178" font-weight="400">bocpdms 8.61</text><circle cx="563.8" cy="236" r="3" fill="#6A7178"/><text x="569.8" y="239" font-size="9" font-family="monospace" fill="#6A7178" font-weight="400">rbocpdms 8.88</text><circle cx="663.6" cy="248" r="3" fill="#6A7178"/><text x="669.6" y="251" font-size="9" font-family="monospace" fill="#6A7178" font-weight="400">kcpa 10.50</text><circle cx="696.2" cy="260" r="3" fill="#6A7178"/><text x="702.2" y="263" font-size="9" font-family="monospace" fill="#6A7178" font-weight="400">zero 11.03</text><circle cx="756.7" cy="272" r="3" fill="#6A7178"/><text x="762.7" y="275" font-size="9" font-family="monospace" fill="#6A7178" font-weight="400">prophet 12.02</text><circle cx="884.3" cy="284" r="3" fill="#6A7178"/><text x="890.3" y="287" font-size="9" font-family="monospace" fill="#6A7178" font-weight="400">wbs 14.09</text>
</svg>
