<svg xmlns="http://www.w3.org/2000/svg" width="980" height="310" viewBox="0 0 980 310">
  <rect width="100%" height="100%" fill="#F7F5F0"/>
  <text x="30" y="30" font-size="15" font-family="Georgia,serif" fill="#16181C">TCPD critical-difference diagram · real_world_37 · default_covering</text>
  <text x="30" y="52" font-size="10" font-family="monospace" fill="#6A7178">Lower rank is better · CD95=3.916 · N=30 · non-separation is inconclusive</text>
  <line x1="80" y1="80" x2="940" y2="80" stroke="#8B93A1" stroke-width="1"/>
  <line x1="80.0" y1="75" x2="80.0" y2="85" stroke="#8B93A1" stroke-width="1"/><text x="76.0" y="68" font-size="9" font-family="monospace" fill="#6A7178">1</text><line x1="141.4" y1="75" x2="141.4" y2="85" stroke="#8B93A1" stroke-width="1"/><line x1="202.9" y1="75" x2="202.9" y2="85" stroke="#8B93A1" stroke-width="1"/><line x1="264.3" y1="75" x2="264.3" y2="85" stroke="#8B93A1" stroke-width="1"/><line x1="325.7" y1="75" x2="325.7" y2="85" stroke="#8B93A1" stroke-width="1"/><text x="321.7" y="68" font-size="9" font-family="monospace" fill="#6A7178">5</text><line x1="387.1" y1="75" x2="387.1" y2="85" stroke="#8B93A1" stroke-width="1"/><line x1="448.6" y1="75" x2="448.6" y2="85" stroke="#8B93A1" stroke-width="1"/><line x1="510.0" y1="75" x2="510.0" y2="85" stroke="#8B93A1" stroke-width="1"/><line x1="571.4" y1="75" x2="571.4" y2="85" stroke="#8B93A1" stroke-width="1"/><line x1="632.9" y1="75" x2="632.9" y2="85" stroke="#8B93A1" stroke-width="1"/><text x="628.9" y="68" font-size="9" font-family="monospace" fill="#6A7178">10</text><line x1="694.3" y1="75" x2="694.3" y2="85" stroke="#8B93A1" stroke-width="1"/><line x1="755.7" y1="75" x2="755.7" y2="85" stroke="#8B93A1" stroke-width="1"/><line x1="817.1" y1="75" x2="817.1" y2="85" stroke="#8B93A1" stroke-width="1"/><line x1="878.6" y1="75" x2="878.6" y2="85" stroke="#8B93A1" stroke-width="1"/><line x1="940.0" y1="75" x2="940.0" y2="85" stroke="#8B93A1" stroke-width="1"/><text x="936.0" y="68" font-size="9" font-family="monospace" fill="#6A7178">15</text>
  <line x1="263.8" y1="98" x2="504.3" y2="98" stroke="#B08A3E" stroke-width="3"/>
  <text x="263.8" y="115" font-size="9" font-family="monospace" fill="#8F7135">SAA-centered CD95</text>
  <circle cx="312.4" cy="116" r="3" fill="#6A7178"/><text x="318.4" y="119" font-size="9" font-family="monospace" fill="#6A7178" font-weight="400">binseg 4.78</text><circle cx="323.7" cy="128" r="3" fill="#6A7178"/><text x="329.7" y="131" font-size="9" font-family="monospace" fill="#6A7178" font-weight="400">pelt 4.97</text><circle cx="349.3" cy="140" r="3" fill="#6A7178"/><text x="355.3" y="143" font-size="9" font-family="monospace" fill="#6A7178" font-weight="400">amoc 5.38</text><circle cx="354.4" cy="152" r="3" fill="#6A7178"/><text x="360.4" y="155" font-size="9" font-family="monospace" fill="#6A7178" font-weight="400">segneigh 5.47</text><circle cx="384.1" cy="164" r="3" fill="#0E120E"/><text x="390.1" y="167" font-size="9" font-family="monospace" fill="#0E120E" font-weight="700">SAA 5.95</text><circle cx="428.1" cy="176" r="3" fill="#6A7178"/><text x="434.1" y="179" font-size="9" font-family="monospace" fill="#6A7178" font-weight="400">bocpd 6.67</text><circle cx="466.0" cy="188" r="3" fill="#6A7178"/><text x="472.0" y="191" font-size="9" font-family="monospace" fill="#6A7178" font-weight="400">bocpdms 7.28</text><circle cx="470.1" cy="200" r="3" fill="#6A7178"/><text x="476.1" y="203" font-size="9" font-family="monospace" fill="#6A7178" font-weight="400">rbocpdms 7.35</text><circle cx="477.2" cy="212" r="3" fill="#6A7178"/><text x="483.2" y="215" font-size="9" font-family="monospace" fill="#6A7178" font-weight="400">zero 7.47</text><circle cx="519.2" cy="224" r="3" fill="#6A7178"/><text x="525.2" y="227" font-size="9" font-family="monospace" fill="#6A7178" font-weight="400">prophet 8.15</text><circle cx="563.2" cy="236" r="3" fill="#6A7178"/><text x="569.2" y="239" font-size="9" font-family="monospace" fill="#6A7178" font-weight="400">ecp 8.87</text><circle cx="568.4" cy="248" r="3" fill="#6A7178"/><text x="574.4" y="251" font-size="9" font-family="monospace" fill="#6A7178" font-weight="400">cpnp 8.95</text><circle cx="736.3" cy="260" r="3" fill="#6A7178"/><text x="742.3" y="263" font-size="9" font-family="monospace" fill="#6A7178" font-weight="400">rfpop 11.68</text><circle cx="764.9" cy="272" r="3" fill="#6A7178"/><text x="770.9" y="275" font-size="9" font-family="monospace" fill="#6A7178" font-weight="400">wbs 12.15</text><circle cx="932.8" cy="284" r="3" fill="#6A7178"/><text x="938.8" y="287" font-size="9" font-family="monospace" fill="#6A7178" font-weight="400">kcpa 14.88</text>
</svg>
